<svg xmlns="http://www.w3.org/2000/svg" viewBox="0 0 64 64"><g id="Layer_48" data-name="Layer 48"><path d="M58.55,6.88,55.6,3.93a3.17,3.17,0,0,0-4.49,0l-16,16a3.17,3.17,0,0,0-.47,3.87L18.13,40.31c-.11-.09-2.38-2.47-2.46-2.38C12.09,34.28,11,29.17,13.8,26.42a1,1,0,0,0-1.07-1.67c-4.63,2.72-7.51,6.76-8.1,11.38-.44,3.75.59,7.63,3.11,9.73a1,1,0,0,0,.18.27l8.16,8.17a1,1,0,0,0,1.41,0l.7-.7.63.63-.69.7a1,1,0,0,0,0,1.41l4.36,4.37a1,1,0,0,0,1.42,0l6.61-6.61a1,1,0,0,0,0-1.41l-4.37-4.37a1,1,0,0,0-1.42,0L24,49l-.63-.63c.32-.36,1.05-.86,1-1.41a.93.93,0,0,0-.29-.7l-1.93-1.93L38.64,27.88a3.15,3.15,0,0,0,3.87-.47l16-16A3.16,3.16,0,0,0,58.55,6.88ZM28.39,53.4,23.2,58.59l-2.95-3,.7-.7a1,1,0,0,0,0-1.41l-2.05-2a1,1,0,0,0-1.41,0l-.7.7L9.33,44.72a1,1,0,0,0-.27-.18c-4-4-3-11.54,1.28-15.44a11.72,11.72,0,0,0,4,10.16.91.91,0,0,0,.18.27L22,47l-.7.7a1,1,0,0,0,0,1.42l2,2a1,1,0,0,0,1.41,0l.7-.7ZM20.76,42.93l-1.21-1.21L35.94,25.33l1.21,1.21ZM57.14,10,41.09,26a1.21,1.21,0,0,1-1.82-.17l-2.63-2.62a1.22,1.22,0,0,1-.16-1.82l16.05-16a1.18,1.18,0,0,1,1.66,0l3,2.95A1.17,1.17,0,0,1,57.14,10Z"/><path d="M17.58,59H5.78a1,1,0,0,0,0,2h11.8A1,1,0,0,0,17.58,59Z"/><path d="M43.72,59h-15a1,1,0,0,0,0,2h15A1,1,0,0,0,43.72,59Z"/><path d="M31,57a1,1,0,0,0,1.4-.21L36.68,51a1,1,0,0,0-.8-1.6H33.6L35.75,46a1,1,0,0,0-1.68-1.08l-3.14,4.92a1,1,0,0,0,.84,1.53H33.9l-3.13,4.26A1,1,0,0,0,31,57Z"/><path d="M37.89,49.11a1,1,0,0,0,1.4-.21L42,45.28a1,1,0,0,0-.8-1.59h-.72l1-1.51a1,1,0,0,0-1.68-1.07l-2,3a1,1,0,0,0,.85,1.54h.56l-1.49,2A1,1,0,0,0,37.89,49.11Z"/></g></svg>