<svg xmlns="http://www.w3.org/2000/svg" viewBox="0 0 64 64"><g id="Layer_66" data-name="Layer 66"><path d="M60,20.1a1,1,0,0,0,1-1V13.94a1,1,0,0,0-1-1H53V8.77a1,1,0,0,0-1-1H23.63a1.66,1.66,0,0,1-.22,0,.9.9,0,0,0-.16,0H4a1,1,0,0,0-1,1V55.23a1,1,0,0,0,1,1c7.6,0,24.58,0,32,0H52a1,1,0,0,0,1-1V51.06h7a1,1,0,0,0,1-1V44.9a1,1,0,0,0-1-1H53V40.74h7a1,1,0,0,0,1-1V34.58a1,1,0,0,0-1-1H53V30.42h7a1,1,0,0,0,1-1V24.26a1,1,0,0,0-1-1H53V20.1Zm-1-2H45V14.94H59ZM35,54.23H26.59a28.53,28.53,0,0,0,3.24-3.17H35ZM23.25,9.77h0c15.54,10.49,15.53,34,0,44.47H5V9.77ZM36,49.06H31.44a29.54,29.54,0,0,0,2-3.16H43v3.16ZM35,43.9h-.55c.18-.43.37-.87.55-1.31Zm1.21-5.16a28.24,28.24,0,0,0,.56-3.16H43v3.16ZM43,28.42H36.77a28.24,28.24,0,0,0-.56-3.16H43Zm-8-7c-.17-.45-.36-.89-.56-1.32H35Zm1-3.32H33.44a29.54,29.54,0,0,0-2-3.16H43V18.1Zm15-5.16H37V9.77H51Zm-16,0H29.83a28.53,28.53,0,0,0-3.24-3.17H35ZM51,54.23H37V51.06H51Zm8-5.17H45V45.9H59ZM51,43.9H37V40.74H51Zm8-5.16H45V35.58H59Zm-8-5.16H37V30.42H51Zm8-5.16H45V25.26H59Zm-8-5.16H37V20.1H51Z"/></g></svg>